<svg width="30" height="29" viewBox="0 0 30 29" fill="none" xmlns="http://www.w3.org/2000/svg">
<path d="M14.9006 0C14.9443 0.0166837 14.9867 0.0377745 15.0317 0.0494217C15.8974 0.272921 16.4331 0.92705 16.4351 1.7902C16.4396 4.04124 16.4367 6.29229 16.4367 8.54334C16.4367 10.6754 16.4367 12.8075 16.4367 14.9398C16.4367 15.0374 16.4367 15.1347 16.4367 15.2867C16.5502 15.1863 16.6255 15.124 16.6953 15.0566C17.7217 14.0672 18.7374 13.0678 19.7756 12.0901C20.8116 11.1148 22.4957 11.5716 22.8299 12.9139C22.9962 13.5818 22.7853 14.1547 22.2821 14.6386C20.6639 16.1955 19.0501 17.7565 17.4345 19.316C16.945 19.7885 16.4585 20.2635 15.9655 20.7322C15.1526 21.5054 14.072 21.506 13.2624 20.7266C11.1482 18.6911 9.03819 16.6513 6.92689 14.6131C6.41529 14.1192 6.22845 13.5293 6.41953 12.855C6.60441 12.2018 7.05895 11.78 7.73978 11.6226C8.41931 11.4652 9.01113 11.6512 9.50578 12.1297C10.5104 13.1015 11.5173 14.0704 12.5209 15.0431C12.5933 15.1133 12.6458 15.203 12.7078 15.2836C12.7371 15.27 12.7665 15.2562 12.7958 15.2427C12.7958 15.1388 12.7958 15.0352 12.7958 14.9313C12.7958 10.6946 12.815 6.45756 12.7828 2.22114C12.7743 1.11561 13.1421 0.343748 14.2749 0.000314855C14.4835 6.72529e-08 14.6919 0 14.9006 0Z" fill="#1C1C1C"/>
<path d="M29.1805 26.6337C29.1022 26.8282 29.0474 27.0353 28.9418 27.2151C28.6072 27.7839 28.0872 28.077 27.4119 28.1147C27.3457 28.1185 27.2792 28.1163 27.213 28.1163C18.8125 28.1163 10.4123 28.1166 2.01176 28.116C1.00453 28.116 0.280658 27.5802 0.0899073 26.6982C-0.132798 25.6695 0.666072 24.6662 1.7571 24.6058C1.88003 24.5989 2.00361 24.602 2.12686 24.602C10.4041 24.602 18.6811 24.602 26.9583 24.602C28.2769 24.602 28.7139 24.8935 29.1808 26.0847C29.1805 26.2676 29.1805 26.4508 29.1805 26.6337Z" fill="#1C1C1C"/>
</svg>
